<svg width="100" height="100" viewBox="0 0 100 100" fill="none" xmlns="http://www.w3.org/2000/svg">
<path d="M50 17.0659L54.6576 45.3425L82.9342 50L54.6576 54.6576L50 82.9342L45.3425 54.6576L17.0659 50L45.3425 45.3425L50 17.0659Z" fill="#2F2F37"/>
<path fill-rule="evenodd" clip-rule="evenodd" d="M50 98.8024C76.9528 98.8024 98.8024 76.9528 98.8024 50C98.8024 23.0472 76.9528 1.1976 50 1.1976C23.0472 1.1976 1.1976 23.0472 1.1976 50C1.1976 76.9528 23.0472 98.8024 50 98.8024ZM50 100C77.6142 100 100 77.6142 100 50C100 22.3858 77.6142 0 50 0C22.3858 0 0 22.3858 0 50C0 77.6142 22.3858 100 50 100Z" fill="#2F2F37"/>
</svg>
