<svg width="21" height="20" viewBox="0 0 21 20" fill="none" xmlns="http://www.w3.org/2000/svg">
<path fill-rule="evenodd" clip-rule="evenodd" d="M7.20801 3.125L16.583 3.125C16.7488 3.125 16.9077 3.19085 17.025 3.30806C17.1422 3.42527 17.208 3.58424 17.208 3.75V13.125C17.208 13.4702 16.9282 13.75 16.583 13.75C16.2378 13.75 15.958 13.4702 15.958 13.125V5.25888L4.52495 16.6919C4.28087 16.936 3.88514 16.936 3.64107 16.6919C3.39699 16.4479 3.39699 16.0521 3.64107 15.8081L15.0741 4.375L7.20801 4.375C6.86283 4.375 6.58301 4.09518 6.58301 3.75C6.58301 3.40482 6.86283 3.125 7.20801 3.125Z" fill="white"/>
</svg>
