<svg width="50" height="50" viewBox="0 0 50 50" fill="none" xmlns="http://www.w3.org/2000/svg">
<rect x="0.5" y="0.5" width="49" height="49" rx="24.5" fill="#1C1C21"/>
<rect x="0.5" y="0.5" width="49" height="49" rx="24.5" stroke="url(#paint0_linear_0_80)"/>
<g clip-path="url(#clip0_0_80)">
<path d="M35 25C35 19.4771 30.5229 15 25 15C19.4771 15 15 19.4771 15 25C15 29.9912 18.6568 34.1283 23.4375 34.8785V27.8906H20.8984V25H23.4375V22.7969C23.4375 20.2906 24.9305 18.9062 27.2146 18.9062C28.3084 18.9062 29.4531 19.1016 29.4531 19.1016V21.5625H28.1922C26.95 21.5625 26.5625 22.3334 26.5625 23.125V25H29.3359L28.8926 27.8906H26.5625V34.8785C31.3432 34.1283 35 29.9912 35 25Z" fill="white"/>
</g>
<defs>
<linearGradient id="paint0_linear_0_80" x1="25" y1="0.999994" x2="25" y2="49" gradientUnits="userSpaceOnUse">
<stop offset="0.278527" stop-color="#2F2F37"/>
<stop offset="1" stop-color="#2F2F37" stop-opacity="0"/>
</linearGradient>
<clipPath id="clip0_0_80">
<rect width="20" height="20" fill="white" transform="translate(15 15)"/>
</clipPath>
</defs>
</svg>
