<svg width="50" height="50" viewBox="0 0 50 50" fill="none" xmlns="http://www.w3.org/2000/svg">
<rect x="0.5" y="0.5" width="49" height="49" rx="24.5" fill="#1C1C21"/>
<rect x="0.5" y="0.5" width="49" height="49" rx="24.5" stroke="url(#paint0_linear_0_86)"/>
<g clip-path="url(#clip0_0_86)">
<path d="M33.5195 15H16.4766C15.6602 15 15 15.6445 15 16.4414V33.5547C15 34.3516 15.6602 35 16.4766 35H33.5195C34.3359 35 35 34.3516 35 33.5586V16.4414C35 15.6445 34.3359 15 33.5195 15ZM20.9336 32.043H17.9648V22.4961H20.9336V32.043ZM19.4492 21.1953C18.4961 21.1953 17.7266 20.4258 17.7266 19.4766C17.7266 18.5273 18.4961 17.7578 19.4492 17.7578C20.3984 17.7578 21.168 18.5273 21.168 19.4766C21.168 20.4219 20.3984 21.1953 19.4492 21.1953ZM32.043 32.043H29.0781V27.4023C29.0781 26.2969 29.0586 24.8711 27.5352 24.8711C25.9922 24.8711 25.7578 26.0781 25.7578 27.3242V32.043H22.7969V22.4961H25.6406V23.8008H25.6797C26.0742 23.0508 27.043 22.2578 28.4844 22.2578C31.4883 22.2578 32.043 24.2344 32.043 26.8047V32.043Z" fill="white"/>
</g>
<defs>
<linearGradient id="paint0_linear_0_86" x1="25" y1="0.999994" x2="25" y2="49" gradientUnits="userSpaceOnUse">
<stop offset="0.278527" stop-color="#2F2F37"/>
<stop offset="1" stop-color="#2F2F37" stop-opacity="0"/>
</linearGradient>
<clipPath id="clip0_0_86">
<rect width="20" height="20" fill="white" transform="translate(15 15)"/>
</clipPath>
</defs>
</svg>
