<svg width="50" height="50" viewBox="0 0 50 50" fill="none" xmlns="http://www.w3.org/2000/svg">
<rect x="0.5" y="0.5" width="49" height="49" rx="24.5" fill="#1C1C21"/>
<rect x="0.5" y="0.5" width="49" height="49" rx="24.5" stroke="url(#paint0_linear_0_83)"/>
<g clip-path="url(#clip0_0_83)">
<path d="M21.2918 33.125C28.8371 33.125 32.9652 26.8723 32.9652 21.4516C32.9652 21.2758 32.9613 21.0961 32.9535 20.9203C33.7566 20.3396 34.4496 19.6202 35 18.7961C34.2521 19.1288 33.458 19.3462 32.6449 19.4406C33.5011 18.9274 34.1421 18.1212 34.4492 17.1715C33.6438 17.6488 32.763 17.9855 31.8445 18.1672C31.2257 17.5096 30.4075 17.0743 29.5164 16.9284C28.6253 16.7825 27.711 16.9342 26.9148 17.3601C26.1186 17.786 25.4848 18.4623 25.1115 19.2844C24.7382 20.1066 24.6462 21.0288 24.8496 21.9086C23.2187 21.8267 21.6233 21.4031 20.1667 20.6651C18.71 19.9271 17.4247 18.8912 16.3941 17.6246C15.8703 18.5277 15.71 19.5964 15.9459 20.6134C16.1817 21.6304 16.7959 22.5195 17.6637 23.1C17.0122 23.0793 16.375 22.9039 15.8047 22.5883V22.6391C15.8041 23.5868 16.1317 24.5055 16.7319 25.239C17.3321 25.9725 18.1678 26.4755 19.0969 26.6625C18.4934 26.8276 17.86 26.8517 17.2457 26.7328C17.5079 27.5479 18.018 28.2607 18.7048 28.7719C19.3916 29.2831 20.2209 29.5672 21.077 29.5844C19.6237 30.7259 17.8285 31.3451 15.9805 31.3422C15.6527 31.3417 15.3253 31.3216 15 31.282C16.8774 32.4865 19.0613 33.1262 21.2918 33.125Z" fill="white"/>
</g>
<defs>
<linearGradient id="paint0_linear_0_83" x1="25" y1="0.999994" x2="25" y2="49" gradientUnits="userSpaceOnUse">
<stop offset="0.278527" stop-color="#2F2F37"/>
<stop offset="1" stop-color="#2F2F37" stop-opacity="0"/>
</linearGradient>
<clipPath id="clip0_0_83">
<rect width="20" height="20" fill="white" transform="translate(15 15)"/>
</clipPath>
</defs>
</svg>
